<?xml version="1.0" encoding="utf-8"?>
<!-- Generator: Adobe Illustrator 25.2.3, SVG Export Plug-In . SVG Version: 6.00 Build 0)  -->
<svg version="1.1" id="圖層_2" xmlns="http://www.w3.org/2000/svg" xmlns:xlink="http://www.w3.org/1999/xlink" x="0px" y="0px"
	 viewBox="0 0 1000 1000" style="enable-background:new 0 0 1000 1000;" xml:space="preserve">
<style type="text/css">
	.st0{fill:#4D9DCE;}
</style>
<polygon class="st0" points="216.75,265.23 246.23,237.21 272.32,211.6 297.44,185.03 320.63,162.8 347.69,149.27 365.08,143.96 
	378.13,141.06 394.56,141.06 409.05,143.96 421.13,146.37 435.14,152.65 446.25,160.39 457.85,170.53 463.17,181.16 468.48,184.06 
	482.99,172.68 504.94,158.05 524.92,146.28 544.55,133.61 564.54,123.26 581.67,114.51 595.41,106.48 616.64,95.96 633.1,89.49 
	645.28,83.33 661.87,76.24 679.94,67.94 702.83,58.44 716.61,55.76 732.94,54.96 749.53,56.57 770.54,64.06 787.67,75.7 
	801.59,89.49 809.49,98.86 815.38,106.35 821.67,115.58 825.95,122.81 828.62,130.57 831.84,138.33 834.65,145.43 836.25,155.6 
	835.45,162.83 834.78,173.4 833.44,179.82 830.77,189.32 828.62,197.75 825.28,204.71 822.2,213.14 818.05,221.84 813.77,228.94 
	806.54,238.04 800.65,245.26 792.49,253.16 783.52,259.99 775.36,267.21 766.53,274.17 760.24,278.86 754.88,283.27 752.21,285.81 
	765.72,284.34 774.96,284.61 784.46,285.81 795.3,288.49 804,292.1 812.16,295.85 819.79,300.8 829.56,307.09 838.53,316.19 
	847.63,324.09 852.45,330.38 857.67,339.75 863.15,349.38 866.5,359.82 870.25,369.32 874.26,378.96 875.73,387.39 874.53,400.91 
	873.32,411.35 870.78,420.45 867.7,432.62 863.42,444.27 859.14,452.83 853.52,464.61 848.16,473.17 841.87,483.35 833.44,493.38 
	823.67,505.43 811.76,520.82 801.59,533.26 795.97,540.22 784.73,556.55 780.18,560.83 771.88,571.81 762.78,583.85 758.9,589.34 
	767.87,597.5 777.64,604.33 785.67,613.29 791.29,620.92 797.44,630.16 802.26,636.71 806.94,645.14 810.29,652.37 814.44,661.61 
	818.99,671.51 820.86,681.55 822.33,692.39 821.13,702.69 817.65,715.41 815.11,724.91 809.49,739.09 802.93,749 797.31,757.83 
	790.48,766.8 784.06,774.02 776.16,780.98 763.05,789.28 750.07,797.04 741.5,801.72 728.12,807.61 720.49,810.96 712.06,813.77 
	701.09,817.12 691.32,819.52 678.2,824.21 667.63,826.62 655.18,829.43 643.41,829.43 625.47,828.62 610.08,829.43 595.63,827.29 
	586.39,825.68 575.02,823 564.31,818.59 552.54,813.9 540.62,806.41 530.59,801.06 522.02,794.23 510.91,785 504.62,777.64 
	497.8,767.06 493.25,758.23 491.11,752.34 483.48,759.03 477.32,767.06 470.77,774.69 464.88,780.98 459.26,787.54 452.83,793.29 
	446.68,800.65 439.99,807.21 434.23,814.57 427.81,822.87 421.12,829.43 415.63,835.99 410.28,842.28 402.91,849.1 394.35,856.73 
	386.45,864.76 379.63,873.06 372.94,879.48 363.57,886.44 352.73,895.41 346.17,901.16 338.94,906.11 322.22,916.01 313.38,922.17 
	295.05,928.73 282.07,931.41 264.8,933.28 246.74,932.21 233.62,931.94 219.84,929.93 211.81,924.58 205.65,920.7 193.87,913.34 
	183.84,905.71 175.41,899.15 167.24,890.19 160.28,881.35 153.32,872.52 147.97,866.1 142.35,856.73 137.93,845.75 134.86,830.63 
	134.86,815.64 137.26,794.1 139,783.66 144.09,768.67 150.51,753.68 160.55,731.2 166.44,716.88 172.73,705.5 178.62,690.78 
	185.04,679 191.06,666.69 196.28,656.52 201.37,643.81 207.39,635.11 213.01,625.87 215.42,616.37 206.32,617.98 194.54,618.65 
	179.15,615.57 169.25,611.82 150.91,601.38 141.41,593.35 132.31,585.06 124.95,578.1 118.39,570.07 112.51,561.5 108.09,553.07 
	101.8,543.57 98.05,534.07 94.84,526.44 92.03,516.4 92.03,508.51 92.03,482.94 94.84,470.77 98.19,453.77 101.93,443.73 
	107.55,429.55 112.64,415.76 119.87,401.71 125.49,389.67 134.05,375.35 141.28,364.24 146.1,357.01 153.59,345.5 161.49,332.92 
	168.58,324.09 177.14,314.19 184.51,304.55 192.67,294.38 199.49,287.29 207.79,275.24 213.81,268.95 "/>
</svg>
