<?xml version="1.0" encoding="utf-8"?>
<!-- Generator: Adobe Illustrator 25.2.3, SVG Export Plug-In . SVG Version: 6.00 Build 0)  -->
<svg version="1.1" xmlns="http://www.w3.org/2000/svg" xmlns:xlink="http://www.w3.org/1999/xlink" x="0px" y="0px"
	 viewBox="0 0 1000 1000" style="enable-background:new 0 0 1000 1000;" xml:space="preserve">
<style type="text/css">
	.st0{display:none;}
	.st1{display:inline;fill:#4D9DCE;stroke:#4D9DCE;stroke-width:9;stroke-miterlimit:10;}
	.st2{display:inline;fill:#FFFFFF;stroke:#FFFFFF;stroke-width:2;stroke-miterlimit:10;}
	.st3{fill:#4D9DCE;}
</style>
<g id="圖層_1" class="st0">
</g>
<g id="圖層_2" class="st0">
	<path class="st1" d="M504.26,301.72c51.69,1.37,61.1-1.14,125.49-0.65c73.67,0.56,88.08,4.05,103.27,13.07
		c5.99,3.56,32.14,19.89,46.41,51.63c6.38,14.19,7.74,27.32,10.46,53.59c2.62,25.29,2.41,43.78,1.96,73.86
		c-0.7,46.92-3.04,39.84-3.27,77.78c-0.22,37.21,2.02,46.1-4.58,62.75c-9.26,23.38-26.02,36.94-31.37,41.18
		c-4.61,3.64-19.05,14.41-55.56,22.88c-24.81,5.75-41.95,6.3-78.43,7.84c-78.9,3.33-63.09,3.48-85.62,3.92
		c-25.42,0.5-28.97-0.01-131.37-2.61c-39.28-1-71.06-1.74-109.8-12.42c-15.2-4.19-32.63-10.23-47.71-25.49
		c-3.34-3.38-14.05-14.79-22.88-39.87c-6-17.05-8.13-31.92-8.5-93.46c-0.23-38.99-0.35-58.49,1.31-78.43
		c2.02-24.37,5.05-40.43,11.11-72.55c6.49-34.41,9.84-43.13,16.99-51.63c12.37-14.71,28.89-20.24,41.18-24.18
		c18.05-5.79,30.55-5.44,54.9-5.88c57.09-1.03,49.25-4.04,94.77-3.92C465.4,299.19,466.23,300.71,504.26,301.72z"/>
</g>
<g id="圖層_3" class="st0">
	<polygon class="st2" points="436.15,437.72 437.21,422.09 442.24,412.82 450.18,410.17 463.16,413.88 479.85,423.94 517.98,450.16 
		558.51,475.59 582.61,489.1 592.14,500 592.14,507.64 584.46,515.32 572.01,521.94 557.45,530.41 534.14,542.86 508.71,559.28 
		481.96,572.26 460.25,585.77 449.92,588.15 441.71,583.65 436.15,577.29 432.97,568.29 434.56,516.11 	"/>
</g>
<g id="圖層_4">
	<polygon class="st3" points="497.87,415.75 500.61,385.38 505.16,360.96 519.07,334.85 536.95,311.85 553.13,295.39 575.27,280.63 
		593.44,270.69 611.61,266.43 629.21,266.43 645.11,267.57 659.59,271.54 672.36,278.92 687.69,289.99 701.03,299.36 706.71,305.04 
		724.31,299.36 741.34,291.41 756.67,281.19 766.32,277.22 775.12,275.23 784.78,277.5 788.18,281.76 789.6,288.57 789.6,298.23 
		784.78,308.45 779.1,316.96 773.99,324.63 766.89,332.01 776.83,330.02 784.49,328.32 791.87,327.18 797.27,330.87 799.54,336.83 
		799.54,343.65 796.41,350.74 790.45,357.84 784.49,364.09 775.98,372.6 766.89,382.25 753.83,392.47 744.46,400.71 744.46,419.73 
		743.05,430.51 741.34,441.58 738.79,456.63 736.23,470.82 732.54,484.73 728.85,498.64 725.45,511.99 719.2,526.46 713.52,540.37 
		705.86,555.13 699.61,569.61 691.38,582.67 684.57,594.88 668.95,617.3 655.61,631.78 638.29,649.1 628.93,657.33 616.15,668.69 
		601.11,680.04 573.85,694.8 551.14,707.58 521.91,720.07 488.69,731.42 445.54,737.67 417.72,739.94 364.35,739.94 330.29,738.23 
		293.95,730.85 263.86,720.07 246.26,710.98 233.77,704.17 221.85,694.52 217.31,688.56 217.31,682.31 222.98,680.32 237.18,680.61 
		257.9,683.45 286.29,685.15 307.01,680.89 328.59,674.08 350.16,664.71 364.07,655.91 381.95,643.7 367.48,637.17 351.01,628.66 
		334.55,618.15 317.23,601.69 302.18,586.08 293.67,571.88 290.26,563.08 290.83,555.7 297.08,550.88 309.57,552.01 322.62,554 
		332.56,551.73 305.88,533.28 293.67,522.77 281.75,511.99 267.84,499.78 257.9,486.72 248.82,470.82 246.26,456.91 245.13,444.14 
		248.82,434.49 257.33,431.36 266.7,435.34 283.17,443.85 299.06,449.82 302.47,448.68 286,427.39 276.07,412.98 265.56,393.89 
		257.33,377.71 251.65,358.69 247.96,339.96 249.95,317.53 257.9,296.52 262.16,289.99 268.4,285.74 272.95,289.71 278.06,297.37 
		288.27,312.99 300.2,326.05 310.7,338.82 322.06,348.76 334.26,357.56 350.44,367.49 373.44,376.86 391.32,385.09 409.49,392.76 
		429.65,399.85 449.52,406.38 471.38,410.64 	"/>
</g>
</svg>
