<?xml version="1.0" encoding="utf-8"?>
<!-- Generator: Adobe Illustrator 25.2.3, SVG Export Plug-In . SVG Version: 6.00 Build 0)  -->
<svg version="1.1" xmlns="http://www.w3.org/2000/svg" xmlns:xlink="http://www.w3.org/1999/xlink" x="0px" y="0px"
	 viewBox="0 0 1000 1000" style="enable-background:new 0 0 1000 1000;" xml:space="preserve">
<style type="text/css">
	.st0{fill:#4C9ECF;}
	.st1{fill:#FFFFFF;}
</style>
<g id="圖層_2">
	<polygon class="st0" points="423.74,201.16 450.74,191.6 477.74,187.45 504.33,187.45 532.16,187.45 562.91,190.35 587.83,193.26 
		622.73,201.99 645.58,212.37 664.69,223.17 690.45,236.47 709.56,252.25 732.82,271.78 751.93,288.4 769.79,311.66 784.34,336.59 
		797.21,366.08 804.69,398.9 810.92,431.72 810.92,467.04 807.18,505.26 799.71,545.14 788.49,577.96 779.77,602.47 769.38,628.64 
		758.16,651.49 744.04,673.51 730.33,693.45 716.62,711.73 702.91,728.35 684.21,747.46 662.61,765.73 636.44,780.27 607.77,793.57 
		574.12,804.79 550.86,811.02 522.61,813.93 496.44,813.93 467.36,813.93 433.71,808.11 408.78,800.22 388.42,793.98 361.84,784.43 
		338.99,775.29 314.89,764.07 286.64,745.79 255.48,713.39 234.3,686.39 218.09,659.38 207.29,631.55 196.08,594.16 191.51,560.92 
		191.51,526.86 194,495.28 199.4,463.71 208.95,430.48 218.09,405.14 230.56,374.39 250.91,340.33 266.29,310.83 296.61,277.18 
		322.37,256.82 350.2,237.71 378.87,219.85 	"/>
</g>
<g id="圖層_3">
	<polyline class="st1" points="488.68,415.47 490.22,401.91 495.08,385.01 501.48,370.17 510.44,360.18 520.68,351.74 532.2,344.83 
		548.32,339.45 564.45,336.12 580.32,334.33 591.84,334.33 606.68,334.33 622.55,336.64 635.1,342.27 645.85,352.25 652.25,363 
		657.11,374.9 657.11,386.29 655.57,396.28 650.97,404.98 644.82,411.63 632.54,418.03 621.02,422.13 609.76,422.13 596.96,419.31 
		583.13,419.82 574.69,422.13 572.9,432.37 572.9,443.63 571.36,454.12 570.34,466.41 569.06,477.93 570.34,485.35 583.39,486.63 
		595.16,486.63 607.2,486.63 617.95,486.63 627.93,487.91 639.96,490.47 649.17,495.33 658.39,501.99 665.56,511.46 670.16,521.7 
		672.72,535.27 671.7,545.76 666.84,555.74 660.69,565.47 649.94,572.12 640.22,576.48 629.21,579.55 615.9,579.55 602.84,576.48 
		586.72,576.48 573.15,576.48 566.24,575.2 566.24,586.2 566.77,596.36 566.77,606.46 566.48,618.86 567.64,630.69 567.93,645.99 
		568.79,659.55 569.66,673.69 570.81,688.12 572.83,703.41 573.41,718.42 570.81,732.27 560.13,747.56 551.77,753.04 541.38,756.51 
		528.39,756.51 516.85,756.51 506.17,750.45 496.65,742.95 490.59,731.4 485.97,718.99 482.51,703.41 480.78,682.64 479.05,663.3 
		479.05,641.66 479.05,621.75 477.89,605.59 477.89,590.3 479.05,579.33 479.34,569.81 465.2,568.94 451.06,566.92 441.54,565.19 
		431.72,561.73 421.91,554.51 415.56,546.72 410.66,534.89 410.66,522.77 412.97,511.52 419.6,500 427.11,493.34 438.94,486.13 
		449.9,484.97 462.89,484.11 478.47,484.97 482.51,484.11 481.94,472.27 482.47,461.11 483.53,446.77 485.39,434.55 	"/>
</g>
</svg>
