<?xml version="1.0" encoding="utf-8"?>
<!-- Generator: Adobe Illustrator 25.2.3, SVG Export Plug-In . SVG Version: 6.00 Build 0)  -->
<svg version="1.1" xmlns="http://www.w3.org/2000/svg" xmlns:xlink="http://www.w3.org/1999/xlink" x="0px" y="0px"
	 viewBox="0 0 1000 1000" style="enable-background:new 0 0 1000 1000;" xml:space="preserve">
<style type="text/css">
	.st0{fill:#4C9ECF;}
	.st1{display:none;}
	.st2{display:inline;fill:#FFFFFF;}
</style>
<g id="圖層_2">
	<path class="st0" d="M767.75,436.87l-3.65-34.33l-6.68-38.89l-10.03-36.77l-12.76-23.09l-13.07-17.32l-18.84-19.14l-23.4-14.89
		l-20.97-9.12l-26.13-8.2l-36.46-7.9l-21.27-1.52l-33.12-2.43l-30.69-1.22h-28.56l-38.28,3.65l-26.13,3.34l-31.9,5.17l-24,5.47
		l-26.74,9.12l-18.06,6.36l-12.86,7.45l-22.14,24.09l-16.93,27.35l-7.81,22.79l-9.77,35.16l-5.86,30.6l-6.51,39.72v32.56v31.26
		v31.26v39.72l5.21,35.81l9.12,39.07l10.42,27.35l19.53,31.26l17.58,20.19l26.05,18.88l37.77,13.02l32.56,7.16l29.83,4.6l35.55,2.13
		l57.43,2.13h37.37l31.6-2.73l22.79-3.65l28.87-7.29l29.78-13.37l11.55-7.29l19.45-14.89l21.57-19.45l17.02-25.83l12.46-25.83
		l10.03-32.51l4.56-32.82l2.73-33.12l3.65-44.67v-32.21L767.75,436.87z M724.58,514.22l-2.81,23.69l-1.61,22.48l-3.61,18.07
		l-2.81,24.49l-4.82,22.08l-7.63,20.07l-7.63,17.67l-13.25,15.66l-15.66,14.05l-18.47,11.64l-21.28,10.44l-25.7,8.03l-26.1,6.42
		l-36.13,2.81h-31.32l-34.13-2.01l-48.18-2.41l-28.1-5.22l-26.9-6.83l-20.88-6.02l-14.05-10.84l-12.04-12.45l-11.24-15.66
		l-11.64-21.68l-5.62-20.88l-8.03-36.13l-3.21-26.9l-1.61-28.91v-31.32l2.81-41.75l1.61-29.71l3.21-29.71l3.61-18.07l7.23-28.91
		l11.64-26.5l24.09-30.11l20.88-10.44l24.89-6.02l21.68-6.02l33.32-4.82l36.94-3.61h34.53h26.9l37.34,1.61l27.3,4.42l26.1,4.82
		l29.31,10.84l17.67,8.83l13.65,15.26l12.85,18.07l8.83,22.08l8.03,30.91l4.42,28.91l4.01,25.7v26.1l1.61,28.1V514.22z"/>
</g>
<g id="圖層_3" class="st1">
	<polygon class="st2" points="310.44,330.91 334.53,300.8 355.41,290.36 380.3,284.34 401.98,278.32 435.3,273.5 472.24,269.89 
		506.77,269.89 533.67,269.89 571,271.49 598.3,275.91 624.4,280.73 653.71,291.57 671.38,300.4 685.03,315.66 697.87,333.72 
		706.71,355.81 714.74,386.72 719.15,415.63 723.17,441.32 723.17,467.42 724.77,495.52 724.77,515.2 721.96,538.88 720.36,561.37 
		716.74,579.43 713.93,603.93 709.12,626.01 701.49,646.08 693.86,663.75 680.61,679.41 664.95,693.46 646.48,705.1 625.2,715.54 
		599.51,723.57 573.41,729.99 537.28,732.8 505.96,732.8 471.84,730.8 423.66,728.39 395.55,723.17 368.65,716.34 347.78,710.32 
		333.72,699.48 321.68,687.03 310.44,671.38 298.8,649.7 293.17,628.82 285.14,592.68 281.93,565.78 280.33,536.88 280.33,505.56 
		283.14,463.81 284.74,434.1 287.96,404.39 291.57,386.32 298.8,357.41 	"/>
</g>
<g id="圖層_4">
	<polygon class="st0" points="642.16,335.61 649.17,335.61 655.48,339.82 660.74,342.97 663.72,347.88 665.47,353.49 666.52,359.62 
		666.52,365.06 664.59,370.31 661.26,374.87 657.06,379.25 651.27,381.88 645.14,383.28 638.65,383.28 631.99,381.53 626.91,377.85 
		623.41,372.77 620.78,368.21 618.85,363.13 618.85,356.64 620.95,349.81 624.28,343.68 627.61,340.52 632.17,337.54 637.78,335.61 
			"/>
</g>
<g id="圖層_5">
</g>
<g id="圖層_6">
	<path class="st0" d="M632.34,477.05l-2.1-12.62l-4.91-12.97l-3.15-9.81l-6.48-11.22l-8.59-13.49l-6.13-7.01l-7.71-8.59
		l-13.49-10.52l-11.74-6.84l-16.12-8.59l-14.55-4.73l-13.49-3.51l-8.24-1.75H497.4l-7.89,0.88l-9.64,1.75l-9.29,2.28l-10.52,3.33
		l-8.59,4.21l-8.59,4.03l-7.89,4.73l-9.46,6.31l-8.76,7.36l-7.71,6.31l-7.19,6.84l-5.61,5.78l-6.84,6.84l-6.84,11.22l-5.61,9.46
		l-4.73,13.14l-3.51,11.92l-2.8,14.2l-1.4,12.62v13.67l1.23,10.69l3.68,14.02l3.51,12.09l4.56,11.57l4.73,12.09l5.61,10.34
		l6.66,9.11l9.64,10.69l8.24,5.96l8.24,5.43l9.64,4.38l10.69,4.38l17.35,5.08l14.55,2.28l12.27,1.4H500h11.94l12.62-1.05l14.37-2.98
		l15.95-6.48l10.52-5.08l11.39-6.66l7.54-6.84l8.76-8.24l7.71-8.24l7.71-10.16l7.19-9.46l4.73-9.46l5.08-12.62l3.68-12.09
		l2.28-13.32l1.93-11.74v-17L632.34,477.05z M587.3,497.55l-0.7,9.64l-2.8,11.92l-2.63,11.74l-5.26,10.52l-5.96,8.59l-6.84,9.46
		l-8.06,8.94l-10.52,8.41l-15.42,6.48l-14.55,3.33h-16.3h-8.41l-12.27-2.45l-10.52-3.15l-10.69-2.8l-10.52-5.26l-10.16-7.19
		l-5.96-6.84l-4.91-8.59l-4.21-7.71l-4.38-10.69l-2.98-8.41l-2.45-7.71l-1.4-9.46l1.05-10.69l2.45-10.87l3.33-11.92l5.96-12.09
		l8.06-10.16l12.27-12.44l11.57-7.89l10.16-6.66l10.69-5.78l8.41-2.45l10.69-2.63h11.57h10.16l12.62,3.51l10.52,4.03l10.69,5.96
		l9.11,5.78l8.59,7.89l4.91,7.54l5.96,8.76l4.38,9.64l2.63,11.57l2.1,10.16V497.55z"/>
</g>
</svg>
