<?xml version="1.0" encoding="UTF-8"?>
<svg xmlns="http://www.w3.org/2000/svg" version="1.1" viewBox="0 0 1000 1000">
  <defs>
    <style>
      .cls-1 {
        fill: #4d95c2;
      }

      .cls-1, .cls-2 {
        stroke-width: 0px;
      }

      .cls-2 {
        fill: #4d9dce;
      }
    </style>
  </defs>
  <g id="_圖層_4" data-name="圖層 4">
    <polygon class="cls-2" points="497.9 415.8 500.6 385.4 505.2 361 519.1 334.9 537 311.9 553.1 295.4 575.3 280.6 593.4 270.7 611.6 266.4 629.2 266.4 645.1 267.6 659.6 271.5 672.4 278.9 687.7 290 701 299.4 706.7 305 724.3 299.4 741.3 291.4 756.7 281.2 766.3 277.2 775.1 275.2 784.8 277.5 788.2 281.8 789.6 288.6 789.6 298.2 784.8 308.5 779.1 317 774 324.6 766.9 332 776.8 330 784.5 328.3 791.9 327.2 797.3 330.9 799.5 336.8 799.5 343.6 796.4 350.7 790.5 357.8 784.5 364.1 776 372.6 766.9 382.2 753.8 392.5 744.5 400.7 744.5 419.7 743 430.5 741.3 441.6 738.8 456.6 736.2 470.8 732.5 484.7 728.8 498.6 725.5 512 719.2 526.5 713.5 540.4 705.9 555.1 699.6 569.6 691.4 582.7 684.6 594.9 669 617.3 655.6 631.8 638.3 649.1 628.9 657.3 616.2 668.7 601.1 680 573.8 694.8 551.1 707.6 521.9 720.1 488.7 731.4 445.5 737.7 417.7 739.9 364.4 739.9 330.3 738.2 294 730.8 263.9 720.1 246.3 711 233.8 704.2 221.9 694.5 217.3 688.6 217.3 682.3 223 680.3 237.2 680.6 257.9 683.5 286.3 685.2 307 680.9 328.6 674.1 350.2 664.7 364.1 655.9 382 643.7 367.5 637.2 351 628.7 334.5 618.2 317.2 601.7 302.2 586.1 293.7 571.9 290.3 563.1 290.8 555.7 297.1 550.9 309.6 552 322.6 554 332.6 551.7 305.9 533.3 293.7 522.8 281.8 512 267.8 499.8 257.9 486.7 248.8 470.8 246.3 456.9 245.1 444.1 248.8 434.5 257.3 431.4 266.7 435.3 283.2 443.9 299.1 449.8 302.5 448.7 286 427.4 276.1 413 265.6 393.9 257.3 377.7 251.6 358.7 248 340 249.9 317.5 257.9 296.5 262.2 290 268.4 285.7 273 289.7 278.1 297.4 288.3 313 300.2 326 310.7 338.8 322.1 348.8 334.3 357.6 350.4 367.5 373.4 376.9 391.3 385.1 409.5 392.8 429.6 399.9 449.5 406.4 471.4 410.6 497.9 415.8"/>
  </g>
  <g id="_圖層_2" data-name="圖層 2">
    <path class="cls-1" d="M651.6,665.5c4,12.4,8,24.9,12.1,37.3s8.7,22.8,17.1,31.9,27.5-5.7,17-17c-6.3-6.8-9.2-15.8-12-24.4s-7.4-22.8-11.1-34.1-8.3-10.2-14.8-8.4-10.4,8.6-8.4,14.8h0Z"/>
    <path class="cls-1" d="M705.4,658.4c-1.4,23.1-9.2,45.2-21.9,64.5s-1.1,13.3,4.3,16.4,12.8,1.1,16.4-4.3c15.1-22.9,23.5-49.3,25.2-76.6s-5.8-12-12-12-11.6,5.5-12,12h0Z"/>
    <path class="cls-1" d="M737.2,656.5c2.3,24.2,3.7,48.5,4.4,72.8.4,15.4,24.4,15.5,24,0-.6-24.3-2.1-48.6-4.4-72.8-.6-6.5-5.1-12-12-12s-12.6,5.5-12,12h0Z"/>
    <path class="cls-1" d="M753.8,666.6c5.9-1.4,12-1.8,18-.8s11.5,2.7,14,5.4c-3.5-3.9-.4-1.6-.3-1.6.7.2-2.3,2.7-2.1,2.5-2,1.8-4.8,2.9-7.2,4.1-6.6,3.2-13.5,5.6-20.4,8-8.7,3-11.5,13.1-5.3,20.1,12.9,14.4,28.9,26.1,46.6,34s12.9,1.7,16.4-4.3,1.6-13.8-4.3-16.4c-16-7.1-30-17.2-41.7-30.2-1.8,6.7-3.5,13.4-5.3,20.1,18.5-6.3,54.4-17.3,46.1-44.1s-15.4-16.9-26-19.7-23.4-2.9-34.9-.1-8.6,26.8,6.4,23.1h0Z"/>
    <path class="cls-1" d="M884,652.1c-7.3-7.2-15.2-13.8-25.7-14.9s-19.5,2.8-26.8,9.4c-13.7,12.3-21.1,33.8-18,51.7,3,17.7,17.7,29.4,33.9,34.9,16.2,5.5,40.5,5.7,48.4-13,2.5-6,1.8-12.9-4.3-16.4s-13.9-1.7-16.4,4.3-2.8,4.3-7.6,4.5-9.4-1.1-13.7-2.6c-7.7-2.6-15.3-7.7-16.8-16.5s2.9-20.1,8.7-27.1,6.8-6.5,11.1-5.5,7.7,5.4,10.4,8.1c11,10.9,27.9-6.1,17-17h0Z"/>
  </g>
</svg>