<?xml version="1.0" encoding="utf-8"?>
<!-- Generator: Adobe Illustrator 25.2.3, SVG Export Plug-In . SVG Version: 6.00 Build 0)  -->
<svg version="1.1" xmlns="http://www.w3.org/2000/svg" xmlns:xlink="http://www.w3.org/1999/xlink" x="0px" y="0px"
	 viewBox="0 0 1000 1000" style="enable-background:new 0 0 1000 1000;" xml:space="preserve">
<style type="text/css">
	.st0{fill:#4D9DCE;stroke:#4D9DCE;stroke-width:9;stroke-miterlimit:10;}
	.st1{fill:#FFFFFF;stroke:#FFFFFF;stroke-width:2;stroke-miterlimit:10;}
</style>
<g id="圖層_2">
	<path class="st0" d="M504.26,301.72c51.69,1.37,61.1-1.14,125.49-0.65c73.67,0.56,88.08,4.05,103.27,13.07
		c5.99,3.56,32.14,19.89,46.41,51.63c6.38,14.19,7.74,27.32,10.46,53.59c2.62,25.29,2.41,43.78,1.96,73.86
		c-0.7,46.92-3.04,39.84-3.27,77.78c-0.22,37.21,2.02,46.1-4.58,62.75c-9.26,23.38-26.02,36.94-31.37,41.18
		c-4.61,3.64-19.05,14.41-55.56,22.88c-24.81,5.75-41.95,6.3-78.43,7.84c-78.9,3.33-63.09,3.48-85.62,3.92
		c-25.42,0.5-28.97-0.01-131.37-2.61c-39.28-1-71.06-1.74-109.8-12.42c-15.2-4.19-32.63-10.23-47.71-25.49
		c-3.34-3.38-14.05-14.79-22.88-39.87c-6-17.05-8.13-31.92-8.5-93.46c-0.23-38.99-0.35-58.49,1.31-78.43
		c2.02-24.37,5.05-40.43,11.11-72.55c6.49-34.41,9.84-43.13,16.99-51.63c12.37-14.71,28.89-20.24,41.18-24.18
		c18.05-5.79,30.55-5.44,54.9-5.88c57.09-1.03,49.25-4.04,94.77-3.92C465.4,299.19,466.23,300.71,504.26,301.72z"/>
</g>
<g id="圖層_3">
	<polygon class="st1" points="436.15,437.72 437.21,422.09 442.24,412.82 450.18,410.17 463.16,413.88 479.85,423.94 517.98,450.16 
		558.51,475.59 582.61,489.1 592.14,500 592.14,507.64 584.46,515.32 572.01,521.94 557.45,530.41 534.14,542.86 508.71,559.28 
		481.96,572.26 460.25,585.77 449.92,588.15 441.71,583.65 436.15,577.29 432.97,568.29 434.56,516.11 	"/>
</g>
</svg>
