<?xml version="1.0" encoding="utf-8"?>
<!-- Generator: Adobe Illustrator 25.2.3, SVG Export Plug-In . SVG Version: 6.00 Build 0)  -->
<svg version="1.1" id="圖層_4" xmlns="http://www.w3.org/2000/svg" xmlns:xlink="http://www.w3.org/1999/xlink" x="0px" y="0px"
	 viewBox="0 0 1000 1000" style="enable-background:new 0 0 1000 1000;" xml:space="preserve">
<style type="text/css">
	.st0{fill:#4D9DCE;}
</style>
<polygon class="st0" points="497.87,415.75 500.61,385.38 505.16,360.96 519.07,334.85 536.95,311.85 553.13,295.39 575.27,280.63 
	593.44,270.69 611.61,266.43 629.21,266.43 645.11,267.57 659.59,271.54 672.36,278.92 687.69,289.99 701.03,299.36 706.71,305.04 
	724.31,299.36 741.34,291.41 756.67,281.19 766.32,277.22 775.12,275.23 784.78,277.5 788.18,281.76 789.6,288.57 789.6,298.23 
	784.78,308.45 779.1,316.96 773.99,324.63 766.89,332.01 776.83,330.02 784.49,328.32 791.87,327.18 797.27,330.87 799.54,336.83 
	799.54,343.65 796.41,350.74 790.45,357.84 784.49,364.09 775.98,372.6 766.89,382.25 753.83,392.47 744.46,400.71 744.46,419.73 
	743.05,430.51 741.34,441.58 738.79,456.63 736.23,470.82 732.54,484.73 728.85,498.64 725.45,511.99 719.2,526.46 713.52,540.37 
	705.86,555.13 699.61,569.61 691.38,582.67 684.57,594.88 668.95,617.3 655.61,631.78 638.29,649.1 628.93,657.33 616.15,668.69 
	601.11,680.04 573.85,694.8 551.14,707.58 521.91,720.07 488.69,731.42 445.54,737.67 417.72,739.94 364.35,739.94 330.29,738.23 
	293.95,730.85 263.86,720.07 246.26,710.98 233.77,704.17 221.85,694.52 217.31,688.56 217.31,682.31 222.98,680.32 237.18,680.61 
	257.9,683.45 286.29,685.15 307.01,680.89 328.59,674.08 350.16,664.71 364.07,655.91 381.95,643.7 367.48,637.17 351.01,628.66 
	334.55,618.15 317.23,601.69 302.18,586.08 293.67,571.88 290.26,563.08 290.83,555.7 297.08,550.88 309.57,552.01 322.62,554 
	332.56,551.73 305.88,533.28 293.67,522.77 281.75,511.99 267.84,499.78 257.9,486.72 248.82,470.82 246.26,456.91 245.13,444.14 
	248.82,434.49 257.33,431.36 266.7,435.34 283.17,443.85 299.06,449.82 302.47,448.68 286,427.39 276.07,412.98 265.56,393.89 
	257.33,377.71 251.65,358.69 247.96,339.96 249.95,317.53 257.9,296.52 262.16,289.99 268.4,285.74 272.95,289.71 278.06,297.37 
	288.27,312.99 300.2,326.05 310.7,338.82 322.06,348.76 334.26,357.56 350.44,367.49 373.44,376.86 391.32,385.09 409.49,392.76 
	429.65,399.85 449.52,406.38 471.38,410.64 "/>
</svg>
